G04 #@! TF.GenerationSoftware,KiCad,Pcbnew,5.1.3-ffb9f22~84~ubuntu18.04.1*
G04 #@! TF.CreationDate,2019-08-08T14:17:25+02:00*
G04 #@! TF.ProjectId,HiveCam,48697665-4361-46d2-9e6b-696361645f70,rev?*
G04 #@! TF.SameCoordinates,Original*
G04 #@! TF.FileFunction,Legend,Bot*
G04 #@! TF.FilePolarity,Positive*
%FSLAX46Y46*%
G04 Gerber Fmt 4.6, Leading zero omitted, Abs format (unit mm)*
G04 Created by KiCad (PCBNEW 5.1.3-ffb9f22~84~ubuntu18.04.1) date 2019-08-08 14:17:25*
%MOMM*%
%LPD*%
G04 APERTURE LIST*
%ADD10C,0.120000*%
%ADD11C,0.150000*%
G04 APERTURE END LIST*
D10*
X119898000Y-120265000D02*
X119898000Y-121665000D01*
X119898000Y-121665000D02*
X122898000Y-121665000D01*
X122898000Y-121665000D02*
X122898000Y-120265000D01*
X113498000Y-120265000D02*
X113498000Y-121665000D01*
X113498000Y-121665000D02*
X116498000Y-121665000D01*
X116498000Y-121665000D02*
X116498000Y-120265000D01*
X90198000Y-120265000D02*
X90198000Y-121665000D01*
X90198000Y-121665000D02*
X93198000Y-121665000D01*
X93198000Y-121665000D02*
X93198000Y-120265000D01*
X83798000Y-120265000D02*
X83798000Y-121665000D01*
X83798000Y-121665000D02*
X86798000Y-121665000D01*
X86798000Y-121665000D02*
X86798000Y-120265000D01*
X60898000Y-120265000D02*
X60898000Y-121665000D01*
X60898000Y-121665000D02*
X63898000Y-121665000D01*
X63898000Y-121665000D02*
X63898000Y-120265000D01*
X54498000Y-120265000D02*
X54498000Y-121665000D01*
X54498000Y-121665000D02*
X57498000Y-121665000D01*
X57498000Y-121665000D02*
X57498000Y-120265000D01*
X34698000Y-121665000D02*
X34698000Y-120265000D01*
X31698000Y-121665000D02*
X34698000Y-121665000D01*
X31698000Y-120265000D02*
X31698000Y-121665000D01*
X28298000Y-121665000D02*
X28298000Y-120265000D01*
X25298000Y-121665000D02*
X28298000Y-121665000D01*
X25298000Y-120265000D02*
X25298000Y-121665000D01*
D11*
X132986095Y-38517380D02*
X132986095Y-39326904D01*
X132938476Y-39422142D01*
X132890857Y-39469761D01*
X132795619Y-39517380D01*
X132605142Y-39517380D01*
X132509904Y-39469761D01*
X132462285Y-39422142D01*
X132414666Y-39326904D01*
X132414666Y-38517380D01*
X131414666Y-39517380D02*
X131986095Y-39517380D01*
X131700380Y-39517380D02*
X131700380Y-38517380D01*
X131795619Y-38660238D01*
X131890857Y-38755476D01*
X131986095Y-38803095D01*
X130462285Y-39517380D02*
X131033714Y-39517380D01*
X130748000Y-39517380D02*
X130748000Y-38517380D01*
X130843238Y-38660238D01*
X130938476Y-38755476D01*
X131033714Y-38803095D01*
X96736095Y-95267380D02*
X96736095Y-96076904D01*
X96688476Y-96172142D01*
X96640857Y-96219761D01*
X96545619Y-96267380D01*
X96355142Y-96267380D01*
X96259904Y-96219761D01*
X96212285Y-96172142D01*
X96164666Y-96076904D01*
X96164666Y-95267380D01*
X95164666Y-96267380D02*
X95736095Y-96267380D01*
X95450380Y-96267380D02*
X95450380Y-95267380D01*
X95545619Y-95410238D01*
X95640857Y-95505476D01*
X95736095Y-95553095D01*
X94545619Y-95267380D02*
X94450380Y-95267380D01*
X94355142Y-95315000D01*
X94307523Y-95362619D01*
X94259904Y-95457857D01*
X94212285Y-95648333D01*
X94212285Y-95886428D01*
X94259904Y-96076904D01*
X94307523Y-96172142D01*
X94355142Y-96219761D01*
X94450380Y-96267380D01*
X94545619Y-96267380D01*
X94640857Y-96219761D01*
X94688476Y-96172142D01*
X94736095Y-96076904D01*
X94783714Y-95886428D01*
X94783714Y-95648333D01*
X94736095Y-95457857D01*
X94688476Y-95362619D01*
X94640857Y-95315000D01*
X94545619Y-95267380D01*
X122436095Y-117217380D02*
X122436095Y-116217380D01*
X122198000Y-116217380D01*
X122055142Y-116265000D01*
X121959904Y-116360238D01*
X121912285Y-116455476D01*
X121864666Y-116645952D01*
X121864666Y-116788809D01*
X121912285Y-116979285D01*
X121959904Y-117074523D01*
X122055142Y-117169761D01*
X122198000Y-117217380D01*
X122436095Y-117217380D01*
X121483714Y-116312619D02*
X121436095Y-116265000D01*
X121340857Y-116217380D01*
X121102761Y-116217380D01*
X121007523Y-116265000D01*
X120959904Y-116312619D01*
X120912285Y-116407857D01*
X120912285Y-116503095D01*
X120959904Y-116645952D01*
X121531333Y-117217380D01*
X120912285Y-117217380D01*
X116036095Y-117217380D02*
X116036095Y-116217380D01*
X115798000Y-116217380D01*
X115655142Y-116265000D01*
X115559904Y-116360238D01*
X115512285Y-116455476D01*
X115464666Y-116645952D01*
X115464666Y-116788809D01*
X115512285Y-116979285D01*
X115559904Y-117074523D01*
X115655142Y-117169761D01*
X115798000Y-117217380D01*
X116036095Y-117217380D01*
X114512285Y-117217380D02*
X115083714Y-117217380D01*
X114798000Y-117217380D02*
X114798000Y-116217380D01*
X114893238Y-116360238D01*
X114988476Y-116455476D01*
X115083714Y-116503095D01*
X93212285Y-117217380D02*
X93212285Y-116217380D01*
X92974190Y-116217380D01*
X92831333Y-116265000D01*
X92736095Y-116360238D01*
X92688476Y-116455476D01*
X92640857Y-116645952D01*
X92640857Y-116788809D01*
X92688476Y-116979285D01*
X92736095Y-117074523D01*
X92831333Y-117169761D01*
X92974190Y-117217380D01*
X93212285Y-117217380D01*
X91688476Y-117217380D02*
X92259904Y-117217380D01*
X91974190Y-117217380D02*
X91974190Y-116217380D01*
X92069428Y-116360238D01*
X92164666Y-116455476D01*
X92259904Y-116503095D01*
X91069428Y-116217380D02*
X90974190Y-116217380D01*
X90878952Y-116265000D01*
X90831333Y-116312619D01*
X90783714Y-116407857D01*
X90736095Y-116598333D01*
X90736095Y-116836428D01*
X90783714Y-117026904D01*
X90831333Y-117122142D01*
X90878952Y-117169761D01*
X90974190Y-117217380D01*
X91069428Y-117217380D01*
X91164666Y-117169761D01*
X91212285Y-117122142D01*
X91259904Y-117026904D01*
X91307523Y-116836428D01*
X91307523Y-116598333D01*
X91259904Y-116407857D01*
X91212285Y-116312619D01*
X91164666Y-116265000D01*
X91069428Y-116217380D01*
X86336095Y-117217380D02*
X86336095Y-116217380D01*
X86098000Y-116217380D01*
X85955142Y-116265000D01*
X85859904Y-116360238D01*
X85812285Y-116455476D01*
X85764666Y-116645952D01*
X85764666Y-116788809D01*
X85812285Y-116979285D01*
X85859904Y-117074523D01*
X85955142Y-117169761D01*
X86098000Y-117217380D01*
X86336095Y-117217380D01*
X85193238Y-116645952D02*
X85288476Y-116598333D01*
X85336095Y-116550714D01*
X85383714Y-116455476D01*
X85383714Y-116407857D01*
X85336095Y-116312619D01*
X85288476Y-116265000D01*
X85193238Y-116217380D01*
X85002761Y-116217380D01*
X84907523Y-116265000D01*
X84859904Y-116312619D01*
X84812285Y-116407857D01*
X84812285Y-116455476D01*
X84859904Y-116550714D01*
X84907523Y-116598333D01*
X85002761Y-116645952D01*
X85193238Y-116645952D01*
X85288476Y-116693571D01*
X85336095Y-116741190D01*
X85383714Y-116836428D01*
X85383714Y-117026904D01*
X85336095Y-117122142D01*
X85288476Y-117169761D01*
X85193238Y-117217380D01*
X85002761Y-117217380D01*
X84907523Y-117169761D01*
X84859904Y-117122142D01*
X84812285Y-117026904D01*
X84812285Y-116836428D01*
X84859904Y-116741190D01*
X84907523Y-116693571D01*
X85002761Y-116645952D01*
X63436095Y-117217380D02*
X63436095Y-116217380D01*
X63198000Y-116217380D01*
X63055142Y-116265000D01*
X62959904Y-116360238D01*
X62912285Y-116455476D01*
X62864666Y-116645952D01*
X62864666Y-116788809D01*
X62912285Y-116979285D01*
X62959904Y-117074523D01*
X63055142Y-117169761D01*
X63198000Y-117217380D01*
X63436095Y-117217380D01*
X62007523Y-116217380D02*
X62198000Y-116217380D01*
X62293238Y-116265000D01*
X62340857Y-116312619D01*
X62436095Y-116455476D01*
X62483714Y-116645952D01*
X62483714Y-117026904D01*
X62436095Y-117122142D01*
X62388476Y-117169761D01*
X62293238Y-117217380D01*
X62102761Y-117217380D01*
X62007523Y-117169761D01*
X61959904Y-117122142D01*
X61912285Y-117026904D01*
X61912285Y-116788809D01*
X61959904Y-116693571D01*
X62007523Y-116645952D01*
X62102761Y-116598333D01*
X62293238Y-116598333D01*
X62388476Y-116645952D01*
X62436095Y-116693571D01*
X62483714Y-116788809D01*
X57036095Y-117217380D02*
X57036095Y-116217380D01*
X56798000Y-116217380D01*
X56655142Y-116265000D01*
X56559904Y-116360238D01*
X56512285Y-116455476D01*
X56464666Y-116645952D01*
X56464666Y-116788809D01*
X56512285Y-116979285D01*
X56559904Y-117074523D01*
X56655142Y-117169761D01*
X56798000Y-117217380D01*
X57036095Y-117217380D01*
X55559904Y-116217380D02*
X56036095Y-116217380D01*
X56083714Y-116693571D01*
X56036095Y-116645952D01*
X55940857Y-116598333D01*
X55702761Y-116598333D01*
X55607523Y-116645952D01*
X55559904Y-116693571D01*
X55512285Y-116788809D01*
X55512285Y-117026904D01*
X55559904Y-117122142D01*
X55607523Y-117169761D01*
X55702761Y-117217380D01*
X55940857Y-117217380D01*
X56036095Y-117169761D01*
X56083714Y-117122142D01*
X34236095Y-117217380D02*
X34236095Y-116217380D01*
X33998000Y-116217380D01*
X33855142Y-116265000D01*
X33759904Y-116360238D01*
X33712285Y-116455476D01*
X33664666Y-116645952D01*
X33664666Y-116788809D01*
X33712285Y-116979285D01*
X33759904Y-117074523D01*
X33855142Y-117169761D01*
X33998000Y-117217380D01*
X34236095Y-117217380D01*
X33188476Y-117217380D02*
X32998000Y-117217380D01*
X32902761Y-117169761D01*
X32855142Y-117122142D01*
X32759904Y-116979285D01*
X32712285Y-116788809D01*
X32712285Y-116407857D01*
X32759904Y-116312619D01*
X32807523Y-116265000D01*
X32902761Y-116217380D01*
X33093238Y-116217380D01*
X33188476Y-116265000D01*
X33236095Y-116312619D01*
X33283714Y-116407857D01*
X33283714Y-116645952D01*
X33236095Y-116741190D01*
X33188476Y-116788809D01*
X33093238Y-116836428D01*
X32902761Y-116836428D01*
X32807523Y-116788809D01*
X32759904Y-116741190D01*
X32712285Y-116645952D01*
X27836095Y-117217380D02*
X27836095Y-116217380D01*
X27598000Y-116217380D01*
X27455142Y-116265000D01*
X27359904Y-116360238D01*
X27312285Y-116455476D01*
X27264666Y-116645952D01*
X27264666Y-116788809D01*
X27312285Y-116979285D01*
X27359904Y-117074523D01*
X27455142Y-117169761D01*
X27598000Y-117217380D01*
X27836095Y-117217380D01*
X26931333Y-116217380D02*
X26264666Y-116217380D01*
X26693238Y-117217380D01*
M02*
