G04 #@! TF.GenerationSoftware,KiCad,Pcbnew,5.1.3-ffb9f22~84~ubuntu18.04.1*
G04 #@! TF.CreationDate,2019-08-08T14:17:25+02:00*
G04 #@! TF.ProjectId,HiveCam,48697665-4361-46d2-9e6b-696361645f70,rev?*
G04 #@! TF.SameCoordinates,Original*
G04 #@! TF.FileFunction,Other,Fab,Bot*
%FSLAX46Y46*%
G04 Gerber Fmt 4.6, Leading zero omitted, Abs format (unit mm)*
G04 Created by KiCad (PCBNEW 5.1.3-ffb9f22~84~ubuntu18.04.1) date 2019-08-08 14:17:25*
%MOMM*%
%LPD*%
G04 APERTURE LIST*
%ADD10C,0.100000*%
%ADD11C,0.150000*%
%ADD12C,0.060000*%
G04 APERTURE END LIST*
D10*
X132748000Y-37065000D02*
G75*
G03X132748000Y-37065000I-1000000J0D01*
G01*
X96498000Y-93815000D02*
G75*
G03X96498000Y-93815000I-1000000J0D01*
G01*
D11*
X132533714Y-35517380D02*
X132533714Y-34850714D01*
X132533714Y-35041190D02*
X132486095Y-34945952D01*
X132438476Y-34898333D01*
X132343238Y-34850714D01*
X132248000Y-34850714D01*
X131533714Y-35469761D02*
X131628952Y-35517380D01*
X131819428Y-35517380D01*
X131914666Y-35469761D01*
X131962285Y-35374523D01*
X131962285Y-34993571D01*
X131914666Y-34898333D01*
X131819428Y-34850714D01*
X131628952Y-34850714D01*
X131533714Y-34898333D01*
X131486095Y-34993571D01*
X131486095Y-35088809D01*
X131962285Y-35184047D01*
X131200380Y-34850714D02*
X130819428Y-34850714D01*
X131057523Y-35517380D02*
X131057523Y-34660238D01*
X131009904Y-34565000D01*
X130914666Y-34517380D01*
X130819428Y-34517380D01*
D12*
X132243238Y-36845952D02*
X132243238Y-37169761D01*
X132224190Y-37207857D01*
X132205142Y-37226904D01*
X132167047Y-37245952D01*
X132090857Y-37245952D01*
X132052761Y-37226904D01*
X132033714Y-37207857D01*
X132014666Y-37169761D01*
X132014666Y-36845952D01*
X131614666Y-37245952D02*
X131843238Y-37245952D01*
X131728952Y-37245952D02*
X131728952Y-36845952D01*
X131767047Y-36903095D01*
X131805142Y-36941190D01*
X131843238Y-36960238D01*
X131233714Y-37245952D02*
X131462285Y-37245952D01*
X131348000Y-37245952D02*
X131348000Y-36845952D01*
X131386095Y-36903095D01*
X131424190Y-36941190D01*
X131462285Y-36960238D01*
D11*
X96283714Y-92267380D02*
X96283714Y-91600714D01*
X96283714Y-91791190D02*
X96236095Y-91695952D01*
X96188476Y-91648333D01*
X96093238Y-91600714D01*
X95998000Y-91600714D01*
X95283714Y-92219761D02*
X95378952Y-92267380D01*
X95569428Y-92267380D01*
X95664666Y-92219761D01*
X95712285Y-92124523D01*
X95712285Y-91743571D01*
X95664666Y-91648333D01*
X95569428Y-91600714D01*
X95378952Y-91600714D01*
X95283714Y-91648333D01*
X95236095Y-91743571D01*
X95236095Y-91838809D01*
X95712285Y-91934047D01*
X94950380Y-91600714D02*
X94569428Y-91600714D01*
X94807523Y-92267380D02*
X94807523Y-91410238D01*
X94759904Y-91315000D01*
X94664666Y-91267380D01*
X94569428Y-91267380D01*
D12*
X95993238Y-93595952D02*
X95993238Y-93919761D01*
X95974190Y-93957857D01*
X95955142Y-93976904D01*
X95917047Y-93995952D01*
X95840857Y-93995952D01*
X95802761Y-93976904D01*
X95783714Y-93957857D01*
X95764666Y-93919761D01*
X95764666Y-93595952D01*
X95364666Y-93995952D02*
X95593238Y-93995952D01*
X95478952Y-93995952D02*
X95478952Y-93595952D01*
X95517047Y-93653095D01*
X95555142Y-93691190D01*
X95593238Y-93710238D01*
X95117047Y-93595952D02*
X95078952Y-93595952D01*
X95040857Y-93615000D01*
X95021809Y-93634047D01*
X95002761Y-93672142D01*
X94983714Y-93748333D01*
X94983714Y-93843571D01*
X95002761Y-93919761D01*
X95021809Y-93957857D01*
X95040857Y-93976904D01*
X95078952Y-93995952D01*
X95117047Y-93995952D01*
X95155142Y-93976904D01*
X95174190Y-93957857D01*
X95193238Y-93919761D01*
X95212285Y-93843571D01*
X95212285Y-93748333D01*
X95193238Y-93672142D01*
X95174190Y-93634047D01*
X95155142Y-93615000D01*
X95117047Y-93595952D01*
D11*
X122340857Y-118217380D02*
X122817047Y-118217380D01*
X122817047Y-117217380D01*
X122007523Y-117693571D02*
X121674190Y-117693571D01*
X121531333Y-118217380D02*
X122007523Y-118217380D01*
X122007523Y-117217380D01*
X121531333Y-117217380D01*
X121102761Y-118217380D02*
X121102761Y-117217380D01*
X120864666Y-117217380D01*
X120721809Y-117265000D01*
X120626571Y-117360238D01*
X120578952Y-117455476D01*
X120531333Y-117645952D01*
X120531333Y-117788809D01*
X120578952Y-117979285D01*
X120626571Y-118074523D01*
X120721809Y-118169761D01*
X120864666Y-118217380D01*
X121102761Y-118217380D01*
X115940857Y-118217380D02*
X116417047Y-118217380D01*
X116417047Y-117217380D01*
X115607523Y-117693571D02*
X115274190Y-117693571D01*
X115131333Y-118217380D02*
X115607523Y-118217380D01*
X115607523Y-117217380D01*
X115131333Y-117217380D01*
X114702761Y-118217380D02*
X114702761Y-117217380D01*
X114464666Y-117217380D01*
X114321809Y-117265000D01*
X114226571Y-117360238D01*
X114178952Y-117455476D01*
X114131333Y-117645952D01*
X114131333Y-117788809D01*
X114178952Y-117979285D01*
X114226571Y-118074523D01*
X114321809Y-118169761D01*
X114464666Y-118217380D01*
X114702761Y-118217380D01*
X92640857Y-118217380D02*
X93117047Y-118217380D01*
X93117047Y-117217380D01*
X92307523Y-117693571D02*
X91974190Y-117693571D01*
X91831333Y-118217380D02*
X92307523Y-118217380D01*
X92307523Y-117217380D01*
X91831333Y-117217380D01*
X91402761Y-118217380D02*
X91402761Y-117217380D01*
X91164666Y-117217380D01*
X91021809Y-117265000D01*
X90926571Y-117360238D01*
X90878952Y-117455476D01*
X90831333Y-117645952D01*
X90831333Y-117788809D01*
X90878952Y-117979285D01*
X90926571Y-118074523D01*
X91021809Y-118169761D01*
X91164666Y-118217380D01*
X91402761Y-118217380D01*
X86240857Y-118217380D02*
X86717047Y-118217380D01*
X86717047Y-117217380D01*
X85907523Y-117693571D02*
X85574190Y-117693571D01*
X85431333Y-118217380D02*
X85907523Y-118217380D01*
X85907523Y-117217380D01*
X85431333Y-117217380D01*
X85002761Y-118217380D02*
X85002761Y-117217380D01*
X84764666Y-117217380D01*
X84621809Y-117265000D01*
X84526571Y-117360238D01*
X84478952Y-117455476D01*
X84431333Y-117645952D01*
X84431333Y-117788809D01*
X84478952Y-117979285D01*
X84526571Y-118074523D01*
X84621809Y-118169761D01*
X84764666Y-118217380D01*
X85002761Y-118217380D01*
X63340857Y-118217380D02*
X63817047Y-118217380D01*
X63817047Y-117217380D01*
X63007523Y-117693571D02*
X62674190Y-117693571D01*
X62531333Y-118217380D02*
X63007523Y-118217380D01*
X63007523Y-117217380D01*
X62531333Y-117217380D01*
X62102761Y-118217380D02*
X62102761Y-117217380D01*
X61864666Y-117217380D01*
X61721809Y-117265000D01*
X61626571Y-117360238D01*
X61578952Y-117455476D01*
X61531333Y-117645952D01*
X61531333Y-117788809D01*
X61578952Y-117979285D01*
X61626571Y-118074523D01*
X61721809Y-118169761D01*
X61864666Y-118217380D01*
X62102761Y-118217380D01*
X56940857Y-118217380D02*
X57417047Y-118217380D01*
X57417047Y-117217380D01*
X56607523Y-117693571D02*
X56274190Y-117693571D01*
X56131333Y-118217380D02*
X56607523Y-118217380D01*
X56607523Y-117217380D01*
X56131333Y-117217380D01*
X55702761Y-118217380D02*
X55702761Y-117217380D01*
X55464666Y-117217380D01*
X55321809Y-117265000D01*
X55226571Y-117360238D01*
X55178952Y-117455476D01*
X55131333Y-117645952D01*
X55131333Y-117788809D01*
X55178952Y-117979285D01*
X55226571Y-118074523D01*
X55321809Y-118169761D01*
X55464666Y-118217380D01*
X55702761Y-118217380D01*
X34140857Y-118217380D02*
X34617047Y-118217380D01*
X34617047Y-117217380D01*
X33807523Y-117693571D02*
X33474190Y-117693571D01*
X33331333Y-118217380D02*
X33807523Y-118217380D01*
X33807523Y-117217380D01*
X33331333Y-117217380D01*
X32902761Y-118217380D02*
X32902761Y-117217380D01*
X32664666Y-117217380D01*
X32521809Y-117265000D01*
X32426571Y-117360238D01*
X32378952Y-117455476D01*
X32331333Y-117645952D01*
X32331333Y-117788809D01*
X32378952Y-117979285D01*
X32426571Y-118074523D01*
X32521809Y-118169761D01*
X32664666Y-118217380D01*
X32902761Y-118217380D01*
X27740857Y-118217380D02*
X28217047Y-118217380D01*
X28217047Y-117217380D01*
X27407523Y-117693571D02*
X27074190Y-117693571D01*
X26931333Y-118217380D02*
X27407523Y-118217380D01*
X27407523Y-117217380D01*
X26931333Y-117217380D01*
X26502761Y-118217380D02*
X26502761Y-117217380D01*
X26264666Y-117217380D01*
X26121809Y-117265000D01*
X26026571Y-117360238D01*
X25978952Y-117455476D01*
X25931333Y-117645952D01*
X25931333Y-117788809D01*
X25978952Y-117979285D01*
X26026571Y-118074523D01*
X26121809Y-118169761D01*
X26264666Y-118217380D01*
X26502761Y-118217380D01*
M02*
