M48
; DRILL file {KiCad 5.1.3-ffb9f22~84~ubuntu18.04.1} date Do 08 Aug 2019 14:17:15 CEST
; FORMAT={-:-/ absolute / inch / decimal}
; #@! TF.CreationDate,2019-08-08T14:17:15+02:00
; #@! TF.GenerationSoftware,Kicad,Pcbnew,5.1.3-ffb9f22~84~ubuntu18.04.1
; #@! TF.FileFunction,Plated,1,2,PTH
FMAT,2
INCH
T1C0.0157
T2C0.0402
T3C0.0433
T4C0.0472
T5C0.0709
%
G90
G05
T1
X0.8562Y-1.9927
X0.8562Y-2.0813
X0.8562Y-2.16
X0.8562Y-2.2585
X0.8562Y-2.3569
X0.8562Y-2.4553
X0.8562Y-2.5537
X0.8562Y-2.6325
X0.9153Y-1.0774
X0.9153Y-1.1758
X0.9153Y-1.2742
X0.9153Y-1.3726
X0.9153Y-1.4711
X0.9153Y-1.5793
X0.97Y-4.8057
X0.992Y-4.8057
X1.0039Y-1.9927
X1.0039Y-2.0813
X1.0039Y-2.16
X1.0039Y-2.2585
X1.0039Y-2.3569
X1.0039Y-2.4553
X1.0039Y-2.5537
X1.0039Y-2.6325
X1.0137Y-1.0774
X1.0137Y-1.1758
X1.0137Y-1.2742
X1.0137Y-1.3726
X1.0137Y-1.4711
X1.0137Y-1.5793
X1.0157Y-4.8057
X1.0354Y-4.8057
X1.055Y-4.8057
X1.0747Y-4.8057
X1.1023Y-4.8057
X1.2401Y-1.0774
X1.2401Y-1.1758
X1.2401Y-1.2742
X1.2401Y-1.3726
X1.2401Y-1.4711
X1.2401Y-1.5793
X1.2613Y-4.8057
X1.2834Y-4.8057
X1.307Y-4.8057
X1.309Y-2.8785
X1.309Y-2.9278
X1.3267Y-4.8057
X1.3385Y-1.0774
X1.3385Y-1.1758
X1.3385Y-1.2742
X1.3385Y-1.3726
X1.3385Y-1.4711
X1.3385Y-1.5793
X1.3385Y-2.9081
X1.3464Y-4.8057
X1.3661Y-4.8057
X1.368Y-2.8785
X1.368Y-2.9278
X1.3936Y-4.8057
X1.3976Y-2.9081
X1.4271Y-1.0774
X1.4271Y-1.1758
X1.4271Y-1.2742
X1.4271Y-1.3726
X1.4271Y-1.4711
X1.4271Y-1.5793
X1.4271Y-2.8785
X1.4271Y-2.9278
X1.4468Y-1.9927
X1.4468Y-2.0813
X1.4468Y-2.16
X1.4468Y-2.2585
X1.4468Y-2.3569
X1.4468Y-2.4553
X1.4468Y-2.5537
X1.4468Y-2.6325
X1.5255Y-1.0774
X1.5255Y-1.1758
X1.5255Y-1.2742
X1.5255Y-1.3726
X1.5255Y-1.4711
X1.5255Y-1.5793
X1.5747Y-2.8982
X1.5747Y-2.9474
X1.6043Y-2.9278
X1.6239Y-1.0774
X1.6239Y-1.1758
X1.6239Y-1.2742
X1.6239Y-1.3726
X1.6239Y-1.4711
X1.6239Y-1.5793
X1.6338Y-2.8982
X1.6338Y-2.9474
X1.6633Y-2.9278
X1.6928Y-2.8982
X1.6928Y-2.9474
X1.7125Y-1.0774
X1.7125Y-1.1758
X1.7125Y-1.2742
X1.7125Y-1.3726
X1.7125Y-1.4711
X1.7125Y-1.5793
X1.7125Y-1.9927
X1.7125Y-2.0813
X1.7125Y-2.16
X1.7125Y-2.2585
X1.7125Y-2.3569
X1.7125Y-2.4553
X1.7125Y-2.5537
X1.7125Y-2.6325
X1.7125Y-2.8293
X1.87Y-2.9474
X1.8995Y-2.9179
X1.8995Y-2.9671
X1.9291Y-2.9474
X1.9487Y-1.0774
X1.9487Y-1.1758
X1.9487Y-1.2742
X1.9487Y-1.3726
X1.9487Y-1.4711
X1.9487Y-1.5793
X1.9586Y-2.9179
X1.9586Y-2.9671
X1.9783Y-2.849
X2.0472Y-1.0774
X2.0472Y-1.1758
X2.0472Y-1.2742
X2.0472Y-1.3726
X2.0472Y-1.4711
X2.0472Y-1.5793
X2.1062Y-2.9376
X2.1062Y-2.9868
X2.1196Y-4.8057
X2.1357Y-2.9671
X2.1417Y-4.8057
X2.1554Y-1.0774
X2.1554Y-1.1758
X2.1554Y-1.2742
X2.1554Y-1.3726
X2.1554Y-1.4711
X2.1554Y-1.5793
X2.1554Y-2.0026
X2.1554Y-2.0911
X2.1554Y-2.1699
X2.1554Y-2.2683
X2.1554Y-2.3667
X2.1554Y-2.4652
X2.1554Y-2.5636
X2.1554Y-2.6423
X2.1653Y-2.9376
X2.1653Y-2.9868
X2.1653Y-4.8057
X2.185Y-4.8057
X2.1948Y-2.9671
X2.2046Y-4.8057
X2.2243Y-2.9376
X2.2243Y-2.9868
X2.2243Y-4.8057
X2.2519Y-4.8057
X2.2735Y-1.0774
X2.2735Y-1.1758
X2.2735Y-1.2742
X2.2735Y-1.3726
X2.2735Y-1.4711
X2.2735Y-1.5793
X2.372Y-2.9573
X2.372Y-3.0065
X2.3917Y-1.0774
X2.3917Y-1.1758
X2.3917Y-1.2742
X2.3917Y-1.3726
X2.3917Y-1.4711
X2.3917Y-1.5793
X2.4015Y-2.9868
X2.4109Y-4.8057
X2.4113Y-2.0026
X2.4113Y-2.0911
X2.4113Y-2.1699
X2.4113Y-2.2683
X2.4113Y-2.3667
X2.4113Y-2.4652
X2.4113Y-2.5636
X2.4113Y-2.6423
X2.431Y-2.9573
X2.431Y-3.0065
X2.433Y-4.8057
X2.4566Y-4.8057
X2.4606Y-2.9868
X2.4763Y-4.8057
X2.4901Y-2.9573
X2.4901Y-3.0065
X2.496Y-4.8057
X2.5098Y-1.0774
X2.5098Y-1.1758
X2.5098Y-1.2742
X2.5098Y-1.3726
X2.5098Y-1.4711
X2.5098Y-1.5793
X2.5157Y-4.8057
X2.5432Y-4.8057
X2.6377Y-2.977
X2.6377Y-3.0262
X2.6672Y-3.0065
X2.6869Y-1.0774
X2.6869Y-1.1758
X2.6869Y-1.2742
X2.6869Y-1.3726
X2.6869Y-1.4711
X2.6869Y-1.5793
X2.6968Y-2.977
X2.6968Y-3.0262
X2.7263Y-3.0065
X2.7558Y-2.977
X2.7558Y-3.0262
X2.7755Y-2.9081
X2.8149Y-1.0774
X2.8149Y-1.1758
X2.8149Y-1.2742
X2.8149Y-1.3726
X2.8149Y-1.4711
X2.8149Y-1.5793
X2.8641Y-2.0026
X2.8641Y-2.0911
X2.8641Y-2.1699
X2.8641Y-2.2683
X2.8641Y-2.3667
X2.8641Y-2.4652
X2.8641Y-2.5636
X2.8641Y-2.6423
X2.933Y-3.0262
X2.9428Y-1.0774
X2.9428Y-1.1758
X2.9428Y-1.2742
X2.9428Y-1.3726
X2.9428Y-1.4711
X2.9428Y-1.5793
X2.9625Y-2.9967
X2.9625Y-3.0459
X2.992Y-3.0262
X3.0216Y-2.9967
X3.0216Y-3.0459
X3.0413Y-2.9278
X3.0609Y-1.0774
X3.0609Y-1.1758
X3.0609Y-1.2742
X3.0609Y-1.3726
X3.0609Y-1.4711
X3.0609Y-1.5793
X3.12Y-2.0026
X3.12Y-2.0911
X3.12Y-2.1699
X3.12Y-2.2683
X3.12Y-2.3667
X3.12Y-2.4652
X3.12Y-2.5636
X3.12Y-2.6423
X3.1692Y-3.0656
X3.1791Y-1.0774
X3.1791Y-1.1758
X3.1791Y-1.2742
X3.1791Y-1.3726
X3.1791Y-1.4711
X3.1791Y-1.5793
X3.1987Y-3.0459
X3.2283Y-3.0163
X3.2283Y-3.0656
X3.2578Y-3.0459
X3.2731Y-4.8057
X3.2873Y-3.0163
X3.2873Y-3.0656
X3.2952Y-4.8057
X3.307Y-2.9474
X3.3188Y-4.8057
X3.3385Y-4.8057
X3.3582Y-4.8057
X3.3779Y-4.8057
X3.4054Y-4.8057
X3.435Y-1.0774
X3.435Y-1.1758
X3.435Y-1.2742
X3.435Y-1.3726
X3.435Y-1.4711
X3.435Y-1.5793
X3.5531Y-1.0774
X3.5531Y-1.1758
X3.5531Y-1.2742
X3.5531Y-1.3726
X3.5531Y-1.4711
X3.5531Y-1.5793
X3.5629Y-2.0026
X3.5629Y-2.0911
X3.5629Y-2.1699
X3.5629Y-2.2683
X3.5629Y-2.3667
X3.5629Y-2.4652
X3.5629Y-2.5636
X3.5629Y-2.6423
X3.5645Y-4.8057
X3.5865Y-4.8057
X3.6102Y-4.8057
X3.6298Y-4.8057
X3.6495Y-4.8057
X3.6692Y-4.8057
X3.6968Y-4.8057
X3.9074Y-1.8549
X3.9074Y-2.1305
X3.9074Y-2.4061
X3.9074Y-2.6817
X4.1141Y-1.914
X4.1141Y-2.1896
X4.1141Y-2.4652
X4.1141Y-2.7407
X4.2509Y-2.0134
X4.2509Y-2.289
X4.2509Y-2.5646
X4.3269Y-1.7799
X4.4291Y-2.16
X4.4389Y-2.0419
X4.4424Y-4.8057
X4.4645Y-4.8057
X4.4881Y-4.8057
X4.5078Y-4.8057
X4.5275Y-1.9435
X4.5275Y-4.8057
X4.5472Y-4.8057
X4.5669Y-1.3037
X4.5747Y-4.8057
X4.6062Y-2.3569
X4.6357Y-1.5596
X4.6357Y-1.8254
X4.6456Y-1.1659
X4.6554Y-1.3825
X4.6554Y-2.0419
X4.7046Y-2.475
X4.7151Y-1.8346
X4.7338Y-4.8057
X4.7342Y-2.0419
X4.7558Y-4.8057
X4.7637Y-2.3175
X4.7794Y-4.8057
X4.7938Y-2.6823
X4.7991Y-4.8057
X4.8129Y-2.0124
X4.8188Y-4.8057
X4.8385Y-4.8057
X4.8424Y-1.1758
X4.8523Y-2.4061
X4.8661Y-4.8057
X4.8818Y-2.1404
X4.8917Y-1.2742
X4.9611Y-2.7205
T2
X2.4999Y-3.4002
X2.4999Y-3.5183
X2.618Y-3.4002
X2.618Y-3.5183
X2.2617Y-4.3589
X2.2617Y-4.477
X2.3798Y-4.3589
X2.3798Y-4.477
X4.5846Y-4.3589
X4.5846Y-4.477
X4.7027Y-4.3589
X4.7027Y-4.477
X1.3188Y-3.4002
X1.3188Y-3.5183
X1.4369Y-3.4002
X1.4369Y-3.5183
X1.9094Y-3.4002
X1.9094Y-3.5183
X2.0275Y-3.4002
X2.0275Y-3.5183
X3.0905Y-3.4002
X3.0905Y-3.5183
X3.2086Y-3.4002
X3.2086Y-3.5183
X3.4153Y-4.3589
X3.4153Y-4.477
X3.5334Y-4.3589
X3.5334Y-4.477
X1.1121Y-4.3589
X1.1121Y-4.477
X1.2302Y-4.3589
X1.2302Y-4.477
T3
X3.7007Y-1.2939
X3.7007Y-1.3841
X3.7007Y-1.4742
T4
X3.3562Y-0.9494
X3.3562Y-1.1463
X1.8503Y-1.5203
X1.8503Y-1.7171
X4.6062Y-1.0872
X4.7046Y-1.0872
X4.8031Y-1.0872
X4.6948Y-2.8982
X4.7932Y-2.8982
X4.8917Y-2.8982
X2.6082Y-0.9494
X2.6082Y-1.1463
X2.6082Y-1.5301
X2.6082Y-1.727
X3.3562Y-1.5301
X3.3562Y-1.727
X1.1318Y-1.5203
X1.1318Y-1.7171
X1.8503Y-0.9494
X1.8503Y-1.1463
X1.1318Y-0.9494
X1.1318Y-1.1463
T5
X4.1436Y-1.3136
X4.1436Y-1.5301
T0
M30
