G04 #@! TF.GenerationSoftware,KiCad,Pcbnew,5.1.3-ffb9f22~84~ubuntu18.04.1*
G04 #@! TF.CreationDate,2019-08-08T14:17:25+02:00*
G04 #@! TF.ProjectId,HiveCam,48697665-4361-46d2-9e6b-696361645f70,rev?*
G04 #@! TF.SameCoordinates,Original*
G04 #@! TF.FileFunction,Drawing*
%FSLAX46Y46*%
G04 Gerber Fmt 4.6, Leading zero omitted, Abs format (unit mm)*
G04 Created by KiCad (PCBNEW 5.1.3-ffb9f22~84~ubuntu18.04.1) date 2019-08-08 14:17:25*
%MOMM*%
%LPD*%
G04 APERTURE LIST*
%ADD10C,0.120000*%
G04 APERTURE END LIST*
D10*
X119698000Y-120165000D02*
X119698000Y-121865000D01*
X119698000Y-121865000D02*
X123098000Y-121865000D01*
X123098000Y-121865000D02*
X123098000Y-118465000D01*
X123098000Y-118465000D02*
X119698000Y-118465000D01*
X119698000Y-118465000D02*
X119698000Y-120165000D01*
X113298000Y-120165000D02*
X113298000Y-121865000D01*
X113298000Y-121865000D02*
X116698000Y-121865000D01*
X116698000Y-121865000D02*
X116698000Y-118465000D01*
X116698000Y-118465000D02*
X113298000Y-118465000D01*
X113298000Y-118465000D02*
X113298000Y-120165000D01*
X89998000Y-120165000D02*
X89998000Y-121865000D01*
X89998000Y-121865000D02*
X93398000Y-121865000D01*
X93398000Y-121865000D02*
X93398000Y-118465000D01*
X93398000Y-118465000D02*
X89998000Y-118465000D01*
X89998000Y-118465000D02*
X89998000Y-120165000D01*
X83598000Y-120165000D02*
X83598000Y-121865000D01*
X83598000Y-121865000D02*
X86998000Y-121865000D01*
X86998000Y-121865000D02*
X86998000Y-118465000D01*
X86998000Y-118465000D02*
X83598000Y-118465000D01*
X83598000Y-118465000D02*
X83598000Y-120165000D01*
X60698000Y-120165000D02*
X60698000Y-121865000D01*
X60698000Y-121865000D02*
X64098000Y-121865000D01*
X64098000Y-121865000D02*
X64098000Y-118465000D01*
X64098000Y-118465000D02*
X60698000Y-118465000D01*
X60698000Y-118465000D02*
X60698000Y-120165000D01*
X54298000Y-120165000D02*
X54298000Y-121865000D01*
X54298000Y-121865000D02*
X57698000Y-121865000D01*
X57698000Y-121865000D02*
X57698000Y-118465000D01*
X57698000Y-118465000D02*
X54298000Y-118465000D01*
X54298000Y-118465000D02*
X54298000Y-120165000D01*
X31498000Y-118465000D02*
X31498000Y-120165000D01*
X34898000Y-118465000D02*
X31498000Y-118465000D01*
X34898000Y-121865000D02*
X34898000Y-118465000D01*
X31498000Y-121865000D02*
X34898000Y-121865000D01*
X31498000Y-120165000D02*
X31498000Y-121865000D01*
X25098000Y-118465000D02*
X25098000Y-120165000D01*
X28498000Y-118465000D02*
X25098000Y-118465000D01*
X28498000Y-121865000D02*
X28498000Y-118465000D01*
X25098000Y-121865000D02*
X28498000Y-121865000D01*
X25098000Y-120165000D02*
X25098000Y-121865000D01*
M02*
