G04 #@! TF.GenerationSoftware,KiCad,Pcbnew,5.1.3-ffb9f22~84~ubuntu18.04.1*
G04 #@! TF.CreationDate,2019-08-08T14:17:25+02:00*
G04 #@! TF.ProjectId,HiveCam,48697665-4361-46d2-9e6b-696361645f70,rev?*
G04 #@! TF.SameCoordinates,Original*
G04 #@! TF.FileFunction,Soldermask,Bot*
G04 #@! TF.FilePolarity,Negative*
%FSLAX46Y46*%
G04 Gerber Fmt 4.6, Leading zero omitted, Abs format (unit mm)*
G04 Created by KiCad (PCBNEW 5.1.3-ffb9f22~84~ubuntu18.04.1) date 2019-08-08 14:17:25*
%MOMM*%
%LPD*%
G04 APERTURE LIST*
%ADD10C,2.000000*%
%ADD11C,3.200000*%
%ADD12R,2.800000X1.000000*%
%ADD13R,2.800000X0.550000*%
%ADD14C,1.500000*%
%ADD15C,0.100000*%
%ADD16C,3.000000*%
%ADD17C,1.700000*%
%ADD18O,1.700000X2.200000*%
%ADD19C,2.400000*%
%ADD20R,2.400000X2.400000*%
%ADD21C,3.700000*%
%ADD22R,1.800000X1.717500*%
%ADD23O,1.800000X1.717500*%
G04 APERTURE END LIST*
D10*
X131748000Y-37065000D03*
X95498000Y-93815000D03*
D11*
X108198000Y-105065000D03*
D12*
X121398000Y-120165000D03*
D13*
X121398000Y-121265000D03*
X121398000Y-119065000D03*
D14*
X119448000Y-113715000D03*
X116448000Y-113715000D03*
X119448000Y-110715000D03*
D15*
G36*
X116972053Y-109966206D02*
G01*
X116996370Y-109969813D01*
X117020216Y-109975786D01*
X117043362Y-109984068D01*
X117065585Y-109994579D01*
X117086670Y-110007217D01*
X117106416Y-110021861D01*
X117124630Y-110038370D01*
X117141139Y-110056584D01*
X117155783Y-110076330D01*
X117168421Y-110097415D01*
X117178932Y-110119638D01*
X117187214Y-110142784D01*
X117193187Y-110166630D01*
X117196794Y-110190947D01*
X117198000Y-110215500D01*
X117198000Y-111214500D01*
X117196794Y-111239053D01*
X117193187Y-111263370D01*
X117187214Y-111287216D01*
X117178932Y-111310362D01*
X117168421Y-111332585D01*
X117155783Y-111353670D01*
X117141139Y-111373416D01*
X117124630Y-111391630D01*
X117106416Y-111408139D01*
X117086670Y-111422783D01*
X117065585Y-111435421D01*
X117043362Y-111445932D01*
X117020216Y-111454214D01*
X116996370Y-111460187D01*
X116972053Y-111463794D01*
X116947500Y-111465000D01*
X115948500Y-111465000D01*
X115923947Y-111463794D01*
X115899630Y-111460187D01*
X115875784Y-111454214D01*
X115852638Y-111445932D01*
X115830415Y-111435421D01*
X115809330Y-111422783D01*
X115789584Y-111408139D01*
X115771370Y-111391630D01*
X115754861Y-111373416D01*
X115740217Y-111353670D01*
X115727579Y-111332585D01*
X115717068Y-111310362D01*
X115708786Y-111287216D01*
X115702813Y-111263370D01*
X115699206Y-111239053D01*
X115698000Y-111214500D01*
X115698000Y-110215500D01*
X115699206Y-110190947D01*
X115702813Y-110166630D01*
X115708786Y-110142784D01*
X115717068Y-110119638D01*
X115727579Y-110097415D01*
X115740217Y-110076330D01*
X115754861Y-110056584D01*
X115771370Y-110038370D01*
X115789584Y-110021861D01*
X115809330Y-110007217D01*
X115830415Y-109994579D01*
X115852638Y-109984068D01*
X115875784Y-109975786D01*
X115899630Y-109969813D01*
X115923947Y-109966206D01*
X115948500Y-109965000D01*
X116947500Y-109965000D01*
X116972053Y-109966206D01*
X116972053Y-109966206D01*
G37*
D14*
X116448000Y-110715000D03*
D16*
X117948000Y-106395000D03*
D11*
X128198000Y-125565000D03*
D12*
X114998000Y-120165000D03*
D13*
X114998000Y-121265000D03*
X114998000Y-119065000D03*
D11*
X108198000Y-125565000D03*
X128198000Y-105065000D03*
X78498000Y-105065000D03*
D12*
X91698000Y-120165000D03*
D13*
X91698000Y-121265000D03*
X91698000Y-119065000D03*
D14*
X89748000Y-113715000D03*
X86748000Y-113715000D03*
X89748000Y-110715000D03*
D15*
G36*
X87272053Y-109966206D02*
G01*
X87296370Y-109969813D01*
X87320216Y-109975786D01*
X87343362Y-109984068D01*
X87365585Y-109994579D01*
X87386670Y-110007217D01*
X87406416Y-110021861D01*
X87424630Y-110038370D01*
X87441139Y-110056584D01*
X87455783Y-110076330D01*
X87468421Y-110097415D01*
X87478932Y-110119638D01*
X87487214Y-110142784D01*
X87493187Y-110166630D01*
X87496794Y-110190947D01*
X87498000Y-110215500D01*
X87498000Y-111214500D01*
X87496794Y-111239053D01*
X87493187Y-111263370D01*
X87487214Y-111287216D01*
X87478932Y-111310362D01*
X87468421Y-111332585D01*
X87455783Y-111353670D01*
X87441139Y-111373416D01*
X87424630Y-111391630D01*
X87406416Y-111408139D01*
X87386670Y-111422783D01*
X87365585Y-111435421D01*
X87343362Y-111445932D01*
X87320216Y-111454214D01*
X87296370Y-111460187D01*
X87272053Y-111463794D01*
X87247500Y-111465000D01*
X86248500Y-111465000D01*
X86223947Y-111463794D01*
X86199630Y-111460187D01*
X86175784Y-111454214D01*
X86152638Y-111445932D01*
X86130415Y-111435421D01*
X86109330Y-111422783D01*
X86089584Y-111408139D01*
X86071370Y-111391630D01*
X86054861Y-111373416D01*
X86040217Y-111353670D01*
X86027579Y-111332585D01*
X86017068Y-111310362D01*
X86008786Y-111287216D01*
X86002813Y-111263370D01*
X85999206Y-111239053D01*
X85998000Y-111214500D01*
X85998000Y-110215500D01*
X85999206Y-110190947D01*
X86002813Y-110166630D01*
X86008786Y-110142784D01*
X86017068Y-110119638D01*
X86027579Y-110097415D01*
X86040217Y-110076330D01*
X86054861Y-110056584D01*
X86071370Y-110038370D01*
X86089584Y-110021861D01*
X86109330Y-110007217D01*
X86130415Y-109994579D01*
X86152638Y-109984068D01*
X86175784Y-109975786D01*
X86199630Y-109969813D01*
X86223947Y-109966206D01*
X86248500Y-109965000D01*
X87247500Y-109965000D01*
X87272053Y-109966206D01*
X87272053Y-109966206D01*
G37*
D14*
X86748000Y-110715000D03*
D16*
X88248000Y-106395000D03*
D11*
X98498000Y-125565000D03*
D12*
X85298000Y-120165000D03*
D13*
X85298000Y-121265000D03*
X85298000Y-119065000D03*
D11*
X78498000Y-125565000D03*
X98498000Y-105065000D03*
X49198000Y-105065000D03*
D12*
X62398000Y-120165000D03*
D13*
X62398000Y-121265000D03*
X62398000Y-119065000D03*
D14*
X60448000Y-113715000D03*
X57448000Y-113715000D03*
X60448000Y-110715000D03*
D15*
G36*
X57972053Y-109966206D02*
G01*
X57996370Y-109969813D01*
X58020216Y-109975786D01*
X58043362Y-109984068D01*
X58065585Y-109994579D01*
X58086670Y-110007217D01*
X58106416Y-110021861D01*
X58124630Y-110038370D01*
X58141139Y-110056584D01*
X58155783Y-110076330D01*
X58168421Y-110097415D01*
X58178932Y-110119638D01*
X58187214Y-110142784D01*
X58193187Y-110166630D01*
X58196794Y-110190947D01*
X58198000Y-110215500D01*
X58198000Y-111214500D01*
X58196794Y-111239053D01*
X58193187Y-111263370D01*
X58187214Y-111287216D01*
X58178932Y-111310362D01*
X58168421Y-111332585D01*
X58155783Y-111353670D01*
X58141139Y-111373416D01*
X58124630Y-111391630D01*
X58106416Y-111408139D01*
X58086670Y-111422783D01*
X58065585Y-111435421D01*
X58043362Y-111445932D01*
X58020216Y-111454214D01*
X57996370Y-111460187D01*
X57972053Y-111463794D01*
X57947500Y-111465000D01*
X56948500Y-111465000D01*
X56923947Y-111463794D01*
X56899630Y-111460187D01*
X56875784Y-111454214D01*
X56852638Y-111445932D01*
X56830415Y-111435421D01*
X56809330Y-111422783D01*
X56789584Y-111408139D01*
X56771370Y-111391630D01*
X56754861Y-111373416D01*
X56740217Y-111353670D01*
X56727579Y-111332585D01*
X56717068Y-111310362D01*
X56708786Y-111287216D01*
X56702813Y-111263370D01*
X56699206Y-111239053D01*
X56698000Y-111214500D01*
X56698000Y-110215500D01*
X56699206Y-110190947D01*
X56702813Y-110166630D01*
X56708786Y-110142784D01*
X56717068Y-110119638D01*
X56727579Y-110097415D01*
X56740217Y-110076330D01*
X56754861Y-110056584D01*
X56771370Y-110038370D01*
X56789584Y-110021861D01*
X56809330Y-110007217D01*
X56830415Y-109994579D01*
X56852638Y-109984068D01*
X56875784Y-109975786D01*
X56899630Y-109969813D01*
X56923947Y-109966206D01*
X56948500Y-109965000D01*
X57947500Y-109965000D01*
X57972053Y-109966206D01*
X57972053Y-109966206D01*
G37*
D14*
X57448000Y-110715000D03*
D16*
X58948000Y-106395000D03*
D11*
X69198000Y-125565000D03*
D12*
X55998000Y-120165000D03*
D13*
X55998000Y-121265000D03*
X55998000Y-119065000D03*
D11*
X49198000Y-125565000D03*
X69198000Y-105065000D03*
X39998000Y-105065000D03*
X39998000Y-125565000D03*
X19998000Y-125565000D03*
X19998000Y-105065000D03*
X130798000Y-94865000D03*
X130998000Y-21865000D03*
X19998000Y-22365000D03*
X20498000Y-92365000D03*
D16*
X29748000Y-106395000D03*
D15*
G36*
X28772053Y-109966206D02*
G01*
X28796370Y-109969813D01*
X28820216Y-109975786D01*
X28843362Y-109984068D01*
X28865585Y-109994579D01*
X28886670Y-110007217D01*
X28906416Y-110021861D01*
X28924630Y-110038370D01*
X28941139Y-110056584D01*
X28955783Y-110076330D01*
X28968421Y-110097415D01*
X28978932Y-110119638D01*
X28987214Y-110142784D01*
X28993187Y-110166630D01*
X28996794Y-110190947D01*
X28998000Y-110215500D01*
X28998000Y-111214500D01*
X28996794Y-111239053D01*
X28993187Y-111263370D01*
X28987214Y-111287216D01*
X28978932Y-111310362D01*
X28968421Y-111332585D01*
X28955783Y-111353670D01*
X28941139Y-111373416D01*
X28924630Y-111391630D01*
X28906416Y-111408139D01*
X28886670Y-111422783D01*
X28865585Y-111435421D01*
X28843362Y-111445932D01*
X28820216Y-111454214D01*
X28796370Y-111460187D01*
X28772053Y-111463794D01*
X28747500Y-111465000D01*
X27748500Y-111465000D01*
X27723947Y-111463794D01*
X27699630Y-111460187D01*
X27675784Y-111454214D01*
X27652638Y-111445932D01*
X27630415Y-111435421D01*
X27609330Y-111422783D01*
X27589584Y-111408139D01*
X27571370Y-111391630D01*
X27554861Y-111373416D01*
X27540217Y-111353670D01*
X27527579Y-111332585D01*
X27517068Y-111310362D01*
X27508786Y-111287216D01*
X27502813Y-111263370D01*
X27499206Y-111239053D01*
X27498000Y-111214500D01*
X27498000Y-110215500D01*
X27499206Y-110190947D01*
X27502813Y-110166630D01*
X27508786Y-110142784D01*
X27517068Y-110119638D01*
X27527579Y-110097415D01*
X27540217Y-110076330D01*
X27554861Y-110056584D01*
X27571370Y-110038370D01*
X27589584Y-110021861D01*
X27609330Y-110007217D01*
X27630415Y-109994579D01*
X27652638Y-109984068D01*
X27675784Y-109975786D01*
X27699630Y-109969813D01*
X27723947Y-109966206D01*
X27748500Y-109965000D01*
X28747500Y-109965000D01*
X28772053Y-109966206D01*
X28772053Y-109966206D01*
G37*
D14*
X28248000Y-110715000D03*
X31248000Y-110715000D03*
X28248000Y-113715000D03*
X31248000Y-113715000D03*
D16*
X79998000Y-93685000D03*
D15*
G36*
X82022053Y-88616206D02*
G01*
X82046370Y-88619813D01*
X82070216Y-88625786D01*
X82093362Y-88634068D01*
X82115585Y-88644579D01*
X82136670Y-88657217D01*
X82156416Y-88671861D01*
X82174630Y-88688370D01*
X82191139Y-88706584D01*
X82205783Y-88726330D01*
X82218421Y-88747415D01*
X82228932Y-88769638D01*
X82237214Y-88792784D01*
X82243187Y-88816630D01*
X82246794Y-88840947D01*
X82248000Y-88865500D01*
X82248000Y-89864500D01*
X82246794Y-89889053D01*
X82243187Y-89913370D01*
X82237214Y-89937216D01*
X82228932Y-89960362D01*
X82218421Y-89982585D01*
X82205783Y-90003670D01*
X82191139Y-90023416D01*
X82174630Y-90041630D01*
X82156416Y-90058139D01*
X82136670Y-90072783D01*
X82115585Y-90085421D01*
X82093362Y-90095932D01*
X82070216Y-90104214D01*
X82046370Y-90110187D01*
X82022053Y-90113794D01*
X81997500Y-90115000D01*
X80998500Y-90115000D01*
X80973947Y-90113794D01*
X80949630Y-90110187D01*
X80925784Y-90104214D01*
X80902638Y-90095932D01*
X80880415Y-90085421D01*
X80859330Y-90072783D01*
X80839584Y-90058139D01*
X80821370Y-90041630D01*
X80804861Y-90023416D01*
X80790217Y-90003670D01*
X80777579Y-89982585D01*
X80767068Y-89960362D01*
X80758786Y-89937216D01*
X80752813Y-89913370D01*
X80749206Y-89889053D01*
X80748000Y-89864500D01*
X80748000Y-88865500D01*
X80749206Y-88840947D01*
X80752813Y-88816630D01*
X80758786Y-88792784D01*
X80767068Y-88769638D01*
X80777579Y-88747415D01*
X80790217Y-88726330D01*
X80804861Y-88706584D01*
X80821370Y-88688370D01*
X80839584Y-88671861D01*
X80859330Y-88657217D01*
X80880415Y-88644579D01*
X80902638Y-88634068D01*
X80925784Y-88625786D01*
X80949630Y-88619813D01*
X80973947Y-88616206D01*
X80998500Y-88615000D01*
X81997500Y-88615000D01*
X82022053Y-88616206D01*
X82022053Y-88616206D01*
G37*
D14*
X81498000Y-89365000D03*
X78498000Y-89365000D03*
X81498000Y-86365000D03*
X78498000Y-86365000D03*
D16*
X64998000Y-93685000D03*
D15*
G36*
X67022053Y-88616206D02*
G01*
X67046370Y-88619813D01*
X67070216Y-88625786D01*
X67093362Y-88634068D01*
X67115585Y-88644579D01*
X67136670Y-88657217D01*
X67156416Y-88671861D01*
X67174630Y-88688370D01*
X67191139Y-88706584D01*
X67205783Y-88726330D01*
X67218421Y-88747415D01*
X67228932Y-88769638D01*
X67237214Y-88792784D01*
X67243187Y-88816630D01*
X67246794Y-88840947D01*
X67248000Y-88865500D01*
X67248000Y-89864500D01*
X67246794Y-89889053D01*
X67243187Y-89913370D01*
X67237214Y-89937216D01*
X67228932Y-89960362D01*
X67218421Y-89982585D01*
X67205783Y-90003670D01*
X67191139Y-90023416D01*
X67174630Y-90041630D01*
X67156416Y-90058139D01*
X67136670Y-90072783D01*
X67115585Y-90085421D01*
X67093362Y-90095932D01*
X67070216Y-90104214D01*
X67046370Y-90110187D01*
X67022053Y-90113794D01*
X66997500Y-90115000D01*
X65998500Y-90115000D01*
X65973947Y-90113794D01*
X65949630Y-90110187D01*
X65925784Y-90104214D01*
X65902638Y-90095932D01*
X65880415Y-90085421D01*
X65859330Y-90072783D01*
X65839584Y-90058139D01*
X65821370Y-90041630D01*
X65804861Y-90023416D01*
X65790217Y-90003670D01*
X65777579Y-89982585D01*
X65767068Y-89960362D01*
X65758786Y-89937216D01*
X65752813Y-89913370D01*
X65749206Y-89889053D01*
X65748000Y-89864500D01*
X65748000Y-88865500D01*
X65749206Y-88840947D01*
X65752813Y-88816630D01*
X65758786Y-88792784D01*
X65767068Y-88769638D01*
X65777579Y-88747415D01*
X65790217Y-88726330D01*
X65804861Y-88706584D01*
X65821370Y-88688370D01*
X65839584Y-88671861D01*
X65859330Y-88657217D01*
X65880415Y-88644579D01*
X65902638Y-88634068D01*
X65925784Y-88625786D01*
X65949630Y-88619813D01*
X65973947Y-88616206D01*
X65998500Y-88615000D01*
X66997500Y-88615000D01*
X67022053Y-88616206D01*
X67022053Y-88616206D01*
G37*
D14*
X66498000Y-89365000D03*
X63498000Y-89365000D03*
X66498000Y-86365000D03*
X63498000Y-86365000D03*
D16*
X49998000Y-93685000D03*
D15*
G36*
X52022053Y-88616206D02*
G01*
X52046370Y-88619813D01*
X52070216Y-88625786D01*
X52093362Y-88634068D01*
X52115585Y-88644579D01*
X52136670Y-88657217D01*
X52156416Y-88671861D01*
X52174630Y-88688370D01*
X52191139Y-88706584D01*
X52205783Y-88726330D01*
X52218421Y-88747415D01*
X52228932Y-88769638D01*
X52237214Y-88792784D01*
X52243187Y-88816630D01*
X52246794Y-88840947D01*
X52248000Y-88865500D01*
X52248000Y-89864500D01*
X52246794Y-89889053D01*
X52243187Y-89913370D01*
X52237214Y-89937216D01*
X52228932Y-89960362D01*
X52218421Y-89982585D01*
X52205783Y-90003670D01*
X52191139Y-90023416D01*
X52174630Y-90041630D01*
X52156416Y-90058139D01*
X52136670Y-90072783D01*
X52115585Y-90085421D01*
X52093362Y-90095932D01*
X52070216Y-90104214D01*
X52046370Y-90110187D01*
X52022053Y-90113794D01*
X51997500Y-90115000D01*
X50998500Y-90115000D01*
X50973947Y-90113794D01*
X50949630Y-90110187D01*
X50925784Y-90104214D01*
X50902638Y-90095932D01*
X50880415Y-90085421D01*
X50859330Y-90072783D01*
X50839584Y-90058139D01*
X50821370Y-90041630D01*
X50804861Y-90023416D01*
X50790217Y-90003670D01*
X50777579Y-89982585D01*
X50767068Y-89960362D01*
X50758786Y-89937216D01*
X50752813Y-89913370D01*
X50749206Y-89889053D01*
X50748000Y-89864500D01*
X50748000Y-88865500D01*
X50749206Y-88840947D01*
X50752813Y-88816630D01*
X50758786Y-88792784D01*
X50767068Y-88769638D01*
X50777579Y-88747415D01*
X50790217Y-88726330D01*
X50804861Y-88706584D01*
X50821370Y-88688370D01*
X50839584Y-88671861D01*
X50859330Y-88657217D01*
X50880415Y-88644579D01*
X50902638Y-88634068D01*
X50925784Y-88625786D01*
X50949630Y-88619813D01*
X50973947Y-88616206D01*
X50998500Y-88615000D01*
X51997500Y-88615000D01*
X52022053Y-88616206D01*
X52022053Y-88616206D01*
G37*
D14*
X51498000Y-89365000D03*
X48498000Y-89365000D03*
X51498000Y-86365000D03*
X48498000Y-86365000D03*
X33498000Y-86365000D03*
X36498000Y-86365000D03*
X33498000Y-89365000D03*
D15*
G36*
X37022053Y-88616206D02*
G01*
X37046370Y-88619813D01*
X37070216Y-88625786D01*
X37093362Y-88634068D01*
X37115585Y-88644579D01*
X37136670Y-88657217D01*
X37156416Y-88671861D01*
X37174630Y-88688370D01*
X37191139Y-88706584D01*
X37205783Y-88726330D01*
X37218421Y-88747415D01*
X37228932Y-88769638D01*
X37237214Y-88792784D01*
X37243187Y-88816630D01*
X37246794Y-88840947D01*
X37248000Y-88865500D01*
X37248000Y-89864500D01*
X37246794Y-89889053D01*
X37243187Y-89913370D01*
X37237214Y-89937216D01*
X37228932Y-89960362D01*
X37218421Y-89982585D01*
X37205783Y-90003670D01*
X37191139Y-90023416D01*
X37174630Y-90041630D01*
X37156416Y-90058139D01*
X37136670Y-90072783D01*
X37115585Y-90085421D01*
X37093362Y-90095932D01*
X37070216Y-90104214D01*
X37046370Y-90110187D01*
X37022053Y-90113794D01*
X36997500Y-90115000D01*
X35998500Y-90115000D01*
X35973947Y-90113794D01*
X35949630Y-90110187D01*
X35925784Y-90104214D01*
X35902638Y-90095932D01*
X35880415Y-90085421D01*
X35859330Y-90072783D01*
X35839584Y-90058139D01*
X35821370Y-90041630D01*
X35804861Y-90023416D01*
X35790217Y-90003670D01*
X35777579Y-89982585D01*
X35767068Y-89960362D01*
X35758786Y-89937216D01*
X35752813Y-89913370D01*
X35749206Y-89889053D01*
X35748000Y-89864500D01*
X35748000Y-88865500D01*
X35749206Y-88840947D01*
X35752813Y-88816630D01*
X35758786Y-88792784D01*
X35767068Y-88769638D01*
X35777579Y-88747415D01*
X35790217Y-88726330D01*
X35804861Y-88706584D01*
X35821370Y-88688370D01*
X35839584Y-88671861D01*
X35859330Y-88657217D01*
X35880415Y-88644579D01*
X35902638Y-88634068D01*
X35925784Y-88625786D01*
X35949630Y-88619813D01*
X35973947Y-88616206D01*
X35998500Y-88615000D01*
X36997500Y-88615000D01*
X37022053Y-88616206D01*
X37022053Y-88616206D01*
G37*
D14*
X36498000Y-89365000D03*
D16*
X34998000Y-93685000D03*
D15*
G36*
X124872594Y-72516203D02*
G01*
X124896853Y-72519802D01*
X124920642Y-72525761D01*
X124943733Y-72534023D01*
X124965902Y-72544508D01*
X124986937Y-72557116D01*
X125006635Y-72571725D01*
X125024806Y-72588194D01*
X125041275Y-72606365D01*
X125055884Y-72626063D01*
X125068492Y-72647098D01*
X125078977Y-72669267D01*
X125087239Y-72692358D01*
X125093198Y-72716147D01*
X125096797Y-72740406D01*
X125098000Y-72764900D01*
X125098000Y-74465100D01*
X125096797Y-74489594D01*
X125093198Y-74513853D01*
X125087239Y-74537642D01*
X125078977Y-74560733D01*
X125068492Y-74582902D01*
X125055884Y-74603937D01*
X125041275Y-74623635D01*
X125024806Y-74641806D01*
X125006635Y-74658275D01*
X124986937Y-74672884D01*
X124965902Y-74685492D01*
X124943733Y-74695977D01*
X124920642Y-74704239D01*
X124896853Y-74710198D01*
X124872594Y-74713797D01*
X124848100Y-74715000D01*
X123647900Y-74715000D01*
X123623406Y-74713797D01*
X123599147Y-74710198D01*
X123575358Y-74704239D01*
X123552267Y-74695977D01*
X123530098Y-74685492D01*
X123509063Y-74672884D01*
X123489365Y-74658275D01*
X123471194Y-74641806D01*
X123454725Y-74623635D01*
X123440116Y-74603937D01*
X123427508Y-74582902D01*
X123417023Y-74560733D01*
X123408761Y-74537642D01*
X123402802Y-74513853D01*
X123399203Y-74489594D01*
X123398000Y-74465100D01*
X123398000Y-72764900D01*
X123399203Y-72740406D01*
X123402802Y-72716147D01*
X123408761Y-72692358D01*
X123417023Y-72669267D01*
X123427508Y-72647098D01*
X123440116Y-72626063D01*
X123454725Y-72606365D01*
X123471194Y-72588194D01*
X123489365Y-72571725D01*
X123509063Y-72557116D01*
X123530098Y-72544508D01*
X123552267Y-72534023D01*
X123575358Y-72525761D01*
X123599147Y-72519802D01*
X123623406Y-72516203D01*
X123647900Y-72515000D01*
X124848100Y-72515000D01*
X124872594Y-72516203D01*
X124872594Y-72516203D01*
G37*
D17*
X124248000Y-73615000D03*
D18*
X121748000Y-73615000D03*
X119248000Y-73615000D03*
D17*
X124248000Y-80795000D03*
X119248000Y-80795000D03*
X121998000Y-20435000D03*
X116998000Y-20435000D03*
D18*
X121998000Y-27615000D03*
X119498000Y-27615000D03*
D15*
G36*
X117622594Y-26516203D02*
G01*
X117646853Y-26519802D01*
X117670642Y-26525761D01*
X117693733Y-26534023D01*
X117715902Y-26544508D01*
X117736937Y-26557116D01*
X117756635Y-26571725D01*
X117774806Y-26588194D01*
X117791275Y-26606365D01*
X117805884Y-26626063D01*
X117818492Y-26647098D01*
X117828977Y-26669267D01*
X117837239Y-26692358D01*
X117843198Y-26716147D01*
X117846797Y-26740406D01*
X117848000Y-26764900D01*
X117848000Y-28465100D01*
X117846797Y-28489594D01*
X117843198Y-28513853D01*
X117837239Y-28537642D01*
X117828977Y-28560733D01*
X117818492Y-28582902D01*
X117805884Y-28603937D01*
X117791275Y-28623635D01*
X117774806Y-28641806D01*
X117756635Y-28658275D01*
X117736937Y-28672884D01*
X117715902Y-28685492D01*
X117693733Y-28695977D01*
X117670642Y-28704239D01*
X117646853Y-28710198D01*
X117622594Y-28713797D01*
X117598100Y-28715000D01*
X116397900Y-28715000D01*
X116373406Y-28713797D01*
X116349147Y-28710198D01*
X116325358Y-28704239D01*
X116302267Y-28695977D01*
X116280098Y-28685492D01*
X116259063Y-28672884D01*
X116239365Y-28658275D01*
X116221194Y-28641806D01*
X116204725Y-28623635D01*
X116190116Y-28603937D01*
X116177508Y-28582902D01*
X116167023Y-28560733D01*
X116158761Y-28537642D01*
X116152802Y-28513853D01*
X116149203Y-28489594D01*
X116148000Y-28465100D01*
X116148000Y-26764900D01*
X116149203Y-26740406D01*
X116152802Y-26716147D01*
X116158761Y-26692358D01*
X116167023Y-26669267D01*
X116177508Y-26647098D01*
X116190116Y-26626063D01*
X116204725Y-26606365D01*
X116221194Y-26588194D01*
X116239365Y-26571725D01*
X116259063Y-26557116D01*
X116280098Y-26544508D01*
X116302267Y-26534023D01*
X116325358Y-26525761D01*
X116349147Y-26519802D01*
X116373406Y-26516203D01*
X116397900Y-26515000D01*
X117598100Y-26515000D01*
X117622594Y-26516203D01*
X117622594Y-26516203D01*
G37*
D17*
X116998000Y-27615000D03*
D13*
X33198000Y-119065000D03*
X33198000Y-121265000D03*
D12*
X33198000Y-120165000D03*
D13*
X26798000Y-119065000D03*
X26798000Y-121265000D03*
D12*
X26798000Y-120165000D03*
D19*
X46998000Y-38615000D03*
D20*
X46998000Y-43615000D03*
D19*
X28748000Y-29115000D03*
D20*
X28748000Y-24115000D03*
D19*
X46998000Y-29115000D03*
D20*
X46998000Y-24115000D03*
D19*
X28748000Y-38615000D03*
D20*
X28748000Y-43615000D03*
D19*
X66248000Y-38865000D03*
D20*
X66248000Y-43865000D03*
D19*
X66248000Y-29115000D03*
D20*
X66248000Y-24115000D03*
D16*
X105248000Y-26065000D03*
D21*
X105248000Y-38865000D03*
D15*
G36*
X106871061Y-31516212D02*
G01*
X106895485Y-31519834D01*
X106919436Y-31525834D01*
X106942683Y-31534152D01*
X106965003Y-31544709D01*
X106986181Y-31557402D01*
X107006013Y-31572111D01*
X107024308Y-31588692D01*
X107040889Y-31606987D01*
X107055598Y-31626819D01*
X107068291Y-31647997D01*
X107078848Y-31670317D01*
X107087166Y-31693564D01*
X107093166Y-31717515D01*
X107096788Y-31741939D01*
X107098000Y-31766600D01*
X107098000Y-34963400D01*
X107096788Y-34988061D01*
X107093166Y-35012485D01*
X107087166Y-35036436D01*
X107078848Y-35059683D01*
X107068291Y-35082003D01*
X107055598Y-35103181D01*
X107040889Y-35123013D01*
X107024308Y-35141308D01*
X107006013Y-35157889D01*
X106986181Y-35172598D01*
X106965003Y-35185291D01*
X106942683Y-35195848D01*
X106919436Y-35204166D01*
X106895485Y-35210166D01*
X106871061Y-35213788D01*
X106846400Y-35215000D01*
X103649600Y-35215000D01*
X103624939Y-35213788D01*
X103600515Y-35210166D01*
X103576564Y-35204166D01*
X103553317Y-35195848D01*
X103530997Y-35185291D01*
X103509819Y-35172598D01*
X103489987Y-35157889D01*
X103471692Y-35141308D01*
X103455111Y-35123013D01*
X103440402Y-35103181D01*
X103427709Y-35082003D01*
X103417152Y-35059683D01*
X103408834Y-35036436D01*
X103402834Y-35012485D01*
X103399212Y-34988061D01*
X103398000Y-34963400D01*
X103398000Y-31766600D01*
X103399212Y-31741939D01*
X103402834Y-31717515D01*
X103408834Y-31693564D01*
X103417152Y-31670317D01*
X103427709Y-31647997D01*
X103440402Y-31626819D01*
X103455111Y-31606987D01*
X103471692Y-31588692D01*
X103489987Y-31572111D01*
X103509819Y-31557402D01*
X103530997Y-31544709D01*
X103553317Y-31534152D01*
X103576564Y-31525834D01*
X103600515Y-31519834D01*
X103624939Y-31516212D01*
X103649600Y-31515000D01*
X106846400Y-31515000D01*
X106871061Y-31516212D01*
X106871061Y-31516212D01*
G37*
D21*
X105248000Y-33365000D03*
D19*
X85248000Y-38865000D03*
D20*
X85248000Y-43865000D03*
D19*
X85248000Y-29115000D03*
D20*
X85248000Y-24115000D03*
D22*
X93998000Y-32865000D03*
D23*
X93998000Y-35155000D03*
X93998000Y-37445000D03*
M02*
