M48
; DRILL file {KiCad 5.1.3-ffb9f22~84~ubuntu18.04.1} date Do 08 Aug 2019 11:13:35 CEST
; FORMAT={-:-/ absolute / inch / decimal}
; #@! TF.CreationDate,2019-08-08T11:13:35+02:00
; #@! TF.GenerationSoftware,Kicad,Pcbnew,5.1.3-ffb9f22~84~ubuntu18.04.1
; #@! TF.FileFunction,NonPlated,1,2,NPTH
FMAT,2
INCH
T1C0.0669
T2C0.1181
T3C0.1260
%
G90
G05
T1
X4.6062Y-0.8045
X4.8031Y-0.8045
X4.6948Y-3.1809
X4.8917Y-3.1809
T2
X4.6436Y-4.1888
X1.3779Y-3.6884
X1.9684Y-3.6884
X3.1495Y-3.6884
X4.1436Y-1.0262
X3.4743Y-4.1888
X1.1712Y-4.1888
X2.559Y-3.6884
X2.3208Y-4.1888
T3
X3.0905Y-4.9435
X1.5747Y-4.9435
X3.8779Y-4.1364
X5.1495Y-3.7348
X4.2598Y-4.9435
X1.9369Y-4.1364
X0.7873Y-4.9435
X2.7243Y-4.1364
X5.1574Y-0.8608
X0.7873Y-4.1364
X0.7873Y-0.8805
X5.0472Y-4.9435
X5.0472Y-4.1364
X4.2598Y-4.1364
X0.807Y-3.6364
X1.5747Y-4.1364
X1.9369Y-4.9435
X3.8779Y-4.9435
X2.7243Y-4.9435
X3.0905Y-4.1364
T0
M30
